<svg xmlns="http://www.w3.org/2000/svg" xmlns:xlink="http://www.w3.org/1999/xlink" width="40" zoomAndPan="magnify" viewBox="0 0 30 26.249999" height="35" preserveAspectRatio="xMidYMid meet" version="1.0"><defs><clipPath id="d3d04e0c02"><path d="M 4 3 L 27 3 L 27 24 L 4 24 Z M 4 3 " clip-rule="nonzero"/></clipPath><clipPath id="989664011d"><path d="M 7.492188 0 L 29.285156 10.203125 L 22.171875 25.394531 L 0.378906 15.191406 Z M 7.492188 0 " clip-rule="nonzero"/></clipPath><clipPath id="1f5dbccf44"><path d="M 7.492188 0 L 29.285156 10.203125 L 22.171875 25.394531 L 0.378906 15.191406 Z M 7.492188 0 " clip-rule="nonzero"/></clipPath><clipPath id="4aca5b32a7"><path d="M 7.492188 0 L 29.285156 10.203125 L 22.171875 25.394531 L 0.378906 15.191406 Z M 7.492188 0 " clip-rule="nonzero"/></clipPath></defs><g clip-path="url(#d3d04e0c02)"><g clip-path="url(#989664011d)"><g clip-path="url(#1f5dbccf44)"><g clip-path="url(#4aca5b32a7)"><path fill="#000000" d="M 25.742188 15.648438 C 25.488281 15.859375 25.253906 16.03125 24.898438 15.992188 C 24.515625 15.945312 24.222656 15.402344 24.769531 15.410156 C 25.027344 15.40625 25.015625 15.082031 24.847656 14.972656 C 24.546875 14.777344 24.164062 14.929688 23.984375 15.207031 C 23.914062 15.3125 23.875 15.417969 23.867188 15.527344 C 22.609375 15.777344 21.4375 16.164062 20.230469 16.605469 C 19.707031 16.792969 19.101562 17.070312 18.53125 16.917969 C 17.992188 16.769531 17.851562 16.246094 17.972656 15.746094 C 18.113281 15.15625 18.523438 14.632812 18.835938 14.125 C 19.175781 13.578125 19.515625 13.023438 19.855469 12.476562 C 20.519531 11.390625 21.105469 10.253906 21.671875 9.105469 C 21.898438 9.128906 22.125 9.089844 22.347656 8.988281 C 22.6875 8.835938 22.976562 8.527344 23.058594 8.148438 C 23.152344 7.734375 22.988281 7.265625 22.515625 7.261719 C 22.359375 7.261719 22.261719 7.402344 22.222656 7.53125 C 22.132812 7.882812 22.414062 8.160156 21.992188 8.398438 C 21.730469 8.542969 21.472656 8.472656 21.285156 8.292969 C 21.296875 8.269531 21.296875 8.246094 21.300781 8.21875 C 21.300781 7.90625 21.058594 7.679688 20.753906 7.710938 C 20.546875 7.730469 20.457031 7.925781 20.503906 8.113281 C 20.539062 8.277344 20.605469 8.421875 20.683594 8.542969 C 20.144531 9.054688 19.546875 9.472656 18.988281 9.957031 C 18.445312 10.429688 17.960938 10.980469 17.460938 11.5 C 16.976562 12 16.511719 12.507812 16.015625 12.992188 C 15.632812 13.371094 14.882812 13.933594 14.367188 13.445312 C 14.015625 13.113281 14.046875 12.476562 14.078125 12.035156 C 14.117188 11.328125 14.15625 10.609375 14.230469 9.894531 C 14.375 8.480469 14.664062 7.09375 14.9375 5.695312 C 14.941406 5.6875 14.941406 5.664062 14.933594 5.652344 C 15.132812 5.609375 15.316406 5.5 15.472656 5.324219 C 15.832031 4.910156 15.847656 4.214844 15.359375 3.882812 C 14.886719 3.566406 14.164062 3.984375 14.398438 4.570312 C 14.488281 4.800781 14.824219 4.832031 14.945312 4.640625 C 14.945312 4.640625 14.949219 4.652344 14.949219 4.652344 C 14.933594 4.707031 14.941406 4.753906 14.914062 4.8125 C 14.875 4.917969 14.785156 5.023438 14.675781 5.054688 C 14.507812 5.109375 14.363281 5 14.285156 4.851562 C 14.308594 4.675781 14.308594 4.5 14.269531 4.335938 C 14.21875 4.09375 13.882812 3.988281 13.765625 4.242188 C 13.554688 4.695312 13.695312 5.125 13.984375 5.382812 C 13.960938 5.457031 13.9375 5.527344 13.902344 5.605469 C 13.871094 5.671875 13.964844 5.714844 14.003906 5.652344 C 14.042969 5.597656 14.070312 5.539062 14.101562 5.46875 C 14.117188 5.476562 14.121094 5.488281 14.140625 5.496094 C 14.121094 5.511719 14.105469 5.523438 14.097656 5.539062 C 13.484375 6.695312 12.945312 7.851562 12.207031 8.9375 C 11.605469 9.828125 11.035156 10.960938 10.175781 11.648438 C 9.089844 12.507812 8.433594 11.238281 7.925781 10.398438 C 7.332031 9.4375 6.925781 8.40625 6.566406 7.34375 C 7.023438 7.070312 7.238281 6.476562 6.933594 6.003906 C 6.804688 5.796875 6.582031 5.628906 6.332031 5.585938 C 5.988281 5.527344 5.796875 5.699219 5.664062 6 C 5.566406 6.234375 5.800781 6.59375 6.082031 6.453125 C 6.175781 6.40625 6.105469 6.382812 6.152344 6.414062 C 6.199219 6.445312 6.234375 6.484375 6.238281 6.539062 C 6.246094 6.675781 6.078125 6.792969 5.96875 6.828125 C 5.765625 6.886719 5.585938 6.8125 5.46875 6.683594 C 5.546875 6.339844 5.535156 6.011719 5.308594 5.71875 C 5.179688 5.554688 4.894531 5.546875 4.804688 5.761719 C 4.519531 6.417969 4.832031 7.070312 5.359375 7.359375 C 5.351562 7.378906 5.347656 7.40625 5.355469 7.429688 C 5.523438 8.246094 5.554688 9.058594 5.667969 9.878906 C 5.769531 10.675781 5.835938 11.484375 5.867188 12.285156 C 5.886719 13.082031 5.773438 13.890625 5.804688 14.691406 C 5.828125 15.234375 5.769531 15.753906 5.707031 16.285156 C 5.304688 16.242188 4.90625 16.210938 4.511719 16.214844 C 4.378906 16.214844 4.351562 16.417969 4.464844 16.472656 C 4.847656 16.640625 5.246094 16.808594 5.636719 16.96875 C 5.625 17.058594 5.625 17.148438 5.613281 17.238281 C 5.609375 17.359375 5.765625 17.421875 5.820312 17.304688 C 5.855469 17.226562 5.890625 17.152344 5.914062 17.078125 C 7.824219 17.835938 9.789062 18.476562 11.652344 19.359375 C 12.828125 19.910156 13.972656 20.539062 15.078125 21.222656 C 15.59375 21.535156 16.089844 21.976562 16.640625 22.191406 C 16.761719 22.238281 16.890625 22.300781 17.003906 22.363281 C 16.933594 22.476562 16.863281 22.597656 16.792969 22.710938 C 16.726562 22.804688 16.894531 22.914062 16.964844 22.824219 C 17.050781 22.707031 17.140625 22.601562 17.242188 22.496094 C 17.632812 22.71875 18.003906 22.988281 18.425781 23.152344 C 18.625 23.234375 18.84375 23.007812 18.707031 22.816406 C 18.453125 22.472656 18.125 22.203125 17.804688 21.917969 C 18.125 21.601562 18.46875 21.316406 18.800781 21.027344 C 19.429688 20.472656 19.996094 19.863281 20.648438 19.328125 C 21.292969 18.792969 21.976562 18.304688 22.691406 17.859375 C 23.320312 17.460938 23.867188 16.9375 24.5 16.539062 C 25.070312 16.796875 25.835938 16.617188 26.277344 16.210938 C 26.605469 15.925781 26.085938 15.355469 25.742188 15.648438 Z M 22.179688 17.144531 C 21.417969 17.617188 20.707031 18.144531 20.027344 18.71875 C 19.390625 19.257812 18.707031 19.832031 18.21875 20.503906 C 17.953125 20.867188 17.710938 21.253906 17.480469 21.632812 C 17.425781 21.574219 17.378906 21.523438 17.324219 21.464844 C 16.890625 20.972656 16.285156 20.65625 15.734375 20.308594 C 14.582031 19.589844 13.378906 18.933594 12.152344 18.351562 C 10.289062 17.476562 8.253906 16.679688 6.175781 16.371094 C 6.308594 15.90625 6.410156 15.421875 6.5625 14.945312 C 6.816406 14.140625 6.785156 13.210938 6.773438 12.378906 C 6.75 11.515625 6.671875 10.671875 6.511719 9.820312 C 6.359375 9.019531 6.035156 8.257812 5.726562 7.5 C 5.878906 7.53125 6.035156 7.53125 6.183594 7.496094 C 6.359375 8.730469 6.769531 10 7.355469 11.085938 C 7.921875 12.128906 8.84375 13.253906 10.15625 12.675781 C 10.652344 12.460938 11.054688 12.058594 11.394531 11.648438 C 11.839844 11.089844 12.273438 10.472656 12.613281 9.84375 C 12.984375 9.15625 13.300781 8.433594 13.597656 7.710938 C 13.882812 7.039062 14.171875 6.332031 14.339844 5.621094 C 14.34375 5.613281 14.34375 5.613281 14.339844 5.601562 C 14.445312 5.640625 14.558594 5.664062 14.679688 5.667969 C 14.082031 7.210938 13.734375 8.835938 13.425781 10.464844 C 13.214844 11.578125 12.839844 13.414062 13.953125 14.195312 C 15.300781 15.136719 16.628906 13.601562 17.476562 12.722656 C 18.082031 12.09375 18.695312 11.46875 19.285156 10.820312 C 19.878906 10.175781 20.332031 9.425781 20.914062 8.761719 C 21.015625 8.851562 21.132812 8.929688 21.265625 8.980469 C 20.363281 10.15625 19.507812 11.363281 18.71875 12.628906 C 18.304688 13.296875 17.847656 13.964844 17.472656 14.648438 C 17.183594 15.179688 16.976562 15.777344 17.074219 16.390625 C 17.28125 17.710938 18.625 18 19.742188 17.691406 C 21.179688 17.289062 22.59375 16.675781 23.910156 15.960938 C 23.941406 16.050781 23.988281 16.125 24.039062 16.199219 C 24.078125 16.246094 24.113281 16.296875 24.15625 16.335938 C 23.480469 16.570312 22.804688 16.753906 22.179688 17.144531 Z M 22.179688 17.144531 " fill-opacity="1" fill-rule="nonzero"/></g></g></g></g></svg>